<svg width="9.1891in" height="1.2917in" version="1.1" viewBox="0 0 233.4 32.809" xmlns="http://www.w3.org/2000/svg">
 <g transform="translate(2.3442 2.0872)">
  <g transform="matrix(1.5419 0 0 1.5419 -63.694 -90.581)">
   <g transform="matrix(.0016257 0 0 -.001721 39.335 68.579)">
    <path d="m3110.8 4664.6c-101.56-48.083-199.01-151.57-223.86-234.82-33.169-114.67-277.78-1521.5-265.35-1532.6 4.1056-5.589 68.39 27.751 140.99 72.076 420.82 260.65 930.78 452.98 1448.9 547.22 1046.8 190.4 2126.8-5.588 3038.9-554.64 128.57-77.664 145.1-83.157 138.94-48.082-4.1056 22.162-68.39 375.32-140.99 785.7-147.15 817.12-157.52 848.53-306.84 941.03l-82.868 51.745-1836.6 3.661c-1772.4 3.855-1838.8 3.855-1911.3-31.316z" style="stroke-width:1.0203"/>
    <path d="m4553.5 3285.6c-609.46-81.327-1129.7-255.16-1596.1-534.31-437.35-262.48-748.3-539.8-1038.5-924.36-974.32-1303.4-798.1-3041.2 424.93-4174.5 269.46-249.57 634.31-488.05 997.12-650.8 1397.1-624.88 3063.7-404.9 4199.7 550.88 1326.6 1118.5 1552.7 2922.8 536.86 4283.5-534.81 715.46-1376.5 1220.2-2342.3 1405-169.95 33.243-292.25 42.494-663.38 46.252-250.87 3.854-482.95 2.023-518.28-1.638zm953.58-776.55c375.23-59.164 764.94-201.48 1109-404.9 196.96-116.5 601.14-475.14 740.09-658.13 785.57-1026 659.16-2375.6-304.68-3259.3-418.77-384.57-897.61-621.22-1488.4-735.79-290.2-57.333-818.85-57.333-1117.4 0-557.6 107.25-1013.6 319.81-1411.7 658.13-416.61 354.98-681.96 767.2-825.01 1275.6-70.443 249.57-91.187 726.54-41.488 990.95 132.68 722.88 580.4 1347.8 1254.1 1747.1 398.03 236.66 812.58 366.06 1349.4 423.4 130.62 14.839 545.18-7.419 735.87-37.001z" style="stroke-width:1.0203"/>
    <path d="m6155.7 841.37c15.357-35.021 25.989-89.947 25.225-122.12-3.8161-55.782-29.409-90.411-525.15-706.62-469.82-584.15-528.04-650.56-583.66-676.76-120.09-54.909-128.46-51.055-697.8 377.45-452.35 340.45-518.52 394.9-537.7 442.2-39.841 109.66 22.112 245.96 140.79 301.94 110.02 50.882 136.35 38.027 577.25-293.8l399.54-300.71 419.41 518.96c358.19 443.2 428.13 524.12 481.11 549.87 117.01 59.676 251.85 19.167 300.98-90.396z" style="stroke-width:.95334"/>
    <path d="m7217.3-3029.8c-97.454-59.164-296.47-160.82-445.67-227.41-1117.3-497.3-2398.3-500.97-3524-9.2504-136.78 59.164-331.69 157.16-435.3 218.16-101.56 60.995-188.64 103.59-192.75 94.335-12.425-27.751 246.66-1462.3 277.78-1543.7 35.222-88.746 136.78-188.57 230.13-221.82 53.913-20.332 402.13-25.92 1875.9-25.92 1801.4 0 1807.6 0 1898.8 38.832 101.56 44.421 205.28 158.99 221.81 245.91 143.05 800.54 275.72 1536.3 273.67 1538.2-2.1609-0.1927-82.976-46.348-180.43-107.34z" style="stroke-width:1.0203"/>
   </g>
  </g>
  <g transform="matrix(1.5315 0 0 1.5524 -15.321 -115.06)" style="stroke-width:.26639">
   <path d="m25.245 77.832c-0.045153-0.14299-0.12041-0.26717-0.22578-0.37253-0.10536-0.11289-0.2333-0.19944-0.38382-0.25964l-1.0386-0.42898v-0.80151h6.9427v0.80151l-1.9417 0.55316 2.8109 9.144 0.27093 1.0724h0.07902l2.7093-8.6134 1.1853-2.8561h1.8627l3.2173 10.374 0.31609 1.1628h0.06773l3.2286-10.149-1.8965-0.68862v-0.80151h5.2042v0.80151l-1.0724 0.51929c-0.12042 0.06021-0.24459 0.15052-0.37253 0.27093s-0.21449 0.25212-0.25964 0.39511l-3.6915 11.142-1.1628 2.8335h-2.0772l-2.9577-9.5504-0.41769-1.5127h-0.06773l-2.619 8.2296-1.174 2.8335h-2.2013z" style="color-rendering:auto;color:#000000;dominant-baseline:auto;font-feature-settings:normal;font-variant-alternates:normal;font-variant-caps:normal;font-variant-east-asian:normal;font-variant-ligatures:normal;font-variant-numeric:normal;font-variant-position:normal;font-variation-settings:normal;image-rendering:auto;inline-size:0;isolation:auto;mix-blend-mode:normal;shape-margin:0;shape-padding:0;shape-rendering:auto;solid-color:#000000;stop-color:#000000;text-decoration-color:#000000;text-decoration-line:none;text-decoration-style:solid;text-indent:0;text-orientation:mixed;text-transform:none;white-space:normal"/>
   <path d="m23.463 75.836v1.0234l1.123 0.46484c0.13382 0.05353 0.2441 0.12817 0.33594 0.22656l4e-3 4e-3c0.09079 0.09079 0.15238 0.19478 0.19141 0.31836l4.3652 14.191h2.3887l1.209-2.9199 2.5215-7.9219 0.33008 1.1973 2.9883 9.6445h2.2637l1.1992-2.9199 3.6934-11.146v-2e-3c0.03751-0.11878 0.11014-0.23015 0.22461-0.33789 0.12037-0.11329 0.2327-0.19526 0.33789-0.24805l1.1484-0.55469v-1.0195h-5.4707v1.0293l1.8633 0.67578-3.0898 9.7109-0.22852-0.84375-3.2462-10.471h-2.0508l-1.2207 2.9434-2.6152 8.3105-0.19141-0.75976-2.7715-9.0156 1.9062-0.54492v-1.0352zm0.26758 0.26758h6.6758v0.56641l-1.9766 0.5625 2.8516 9.2715 0.29492 1.1699h0.28125l2.7363-8.7012 1.1484-2.7676h1.6758l3.1875 10.277 0.3418 1.2598h0.26758l3.2969-10.363-1.9297-0.70117v-0.57422h4.9375v0.58398l-0.99805 0.48242v2e-3c-0.13531 0.06765-0.26924 0.16585-0.4043 0.29297-0.14141 0.13309-0.24212 0.28397-0.29492 0.45117l-3.6895 11.137-1.127 2.7461h-1.8906l-2.9277-9.4551-0.44336-1.6074h-0.26758l-2.6465 8.3164-1.1387 2.7461h-2.0137l-4.3047-14.006c-0.05073-0.16066-0.1379-0.30466-0.25586-0.42383l-2e-3 -2e-3c-0.1185-0.12637-0.26329-0.22443-0.42964-0.29097l-0.95508-0.39453z" style="color-rendering:auto;color:#000000;dominant-baseline:auto;font-feature-settings:normal;font-variant-alternates:normal;font-variant-caps:normal;font-variant-east-asian:normal;font-variant-ligatures:normal;font-variant-numeric:normal;font-variant-position:normal;font-variation-settings:normal;image-rendering:auto;inline-size:0;isolation:auto;mix-blend-mode:normal;shape-margin:0;shape-padding:0;shape-rendering:auto;solid-color:#000000;stop-color:#000000;text-decoration-color:#000000;text-decoration-line:none;text-decoration-style:solid;text-indent:0;text-orientation:mixed;text-transform:none;white-space:normal"/>
  </g>
  <g transform="matrix(1.5315 0 0 1.5524 -15.321 -115.06)" style="stroke-width:.26639">
   <path d="m50.123 92c-0.48918 0-0.92945-0.08655-1.3208-0.25964-0.39135-0.18062-0.72625-0.41769-1.0047-0.7112-0.27093-0.29351-0.48166-0.63218-0.63218-1.016-0.15052-0.38382-0.22578-0.77893-0.22578-1.1853 0-0.48166 0.08279-0.9144 0.24836-1.2982 0.16557-0.39135 0.38758-0.73378 0.66604-1.0273s0.59831-0.54563 0.95956-0.75636c0.36877-0.21073 0.74883-0.38006 1.1402-0.508 0.39887-0.13547 0.79775-0.2333 1.1966-0.29351 0.4064-0.06773 0.78646-0.1016 1.1402-0.1016 0.07526 0 0.18438 0.0038 0.32738 0.01129 0.15052 0.0075 0.3048 0.01882 0.46284 0.03387 0.15804 0.01505 0.30856 0.03011 0.45156 0.04516 0.15052 0.0075 0.26341 0.01505 0.33867 0.02258l0.01129-1.4337c0-0.36877-0.02634-0.6811-0.07902-0.93698-0.04515-0.26341-0.12794-0.47037-0.24836-0.62089-0.11289-0.15052-0.26717-0.25964-0.46284-0.32738-0.19567-0.06773-0.4365-0.1016-0.72249-0.1016-0.30856 0-0.6397 0.07526-0.99342 0.22578-0.35372 0.14299-0.70367 0.31985-1.0499 0.53058-0.34619 0.2032-0.67357 0.41769-0.98213 0.64347-0.30856 0.21825-0.56821 0.39887-0.77893 0.54187h-0.508l-0.32738-2.4497c0.30104-0.12042 0.62089-0.23707 0.95956-0.34996 0.33867-0.12042 0.69991-0.22578 1.0837-0.31609 0.39135-0.09784 0.80528-0.17686 1.2418-0.23707 0.4365-0.06021 0.90311-0.09031 1.3998-0.09031 0.56444 0 1.1289 0.06021 1.6933 0.18062 0.56444 0.11289 1.0687 0.31233 1.5127 0.59831 0.44403 0.27846 0.80527 0.65852 1.0837 1.1402 0.27846 0.47413 0.41393 1.0724 0.4064 1.7949l-0.04516 5.7348c0 0.12042 0.01881 0.22954 0.05644 0.32738 0.04515 0.09784 0.10536 0.18438 0.18062 0.25964 0.08279 0.06773 0.18062 0.12418 0.29351 0.16933 0.11289 0.03763 0.24459 0.05644 0.39511 0.05644 0.10536 0 0.25212-0.01505 0.44027-0.04516 0.18815-0.03763 0.36501-0.07526 0.53058-0.11289h0.28222v0.9144c-0.12042 0.08279-0.28975 0.18062-0.508 0.29351-0.21073 0.10536-0.44779 0.20696-0.7112 0.3048-0.26341 0.09784-0.5381 0.18062-0.82409 0.24836-0.28598 0.06773-0.55316 0.1016-0.80151 0.1016-0.3763 0-0.71873-0.03387-1.0273-0.1016-0.30104-0.06773-0.56068-0.1731-0.77893-0.31609-0.21073-0.15052-0.3763-0.34996-0.49671-0.59831-0.11289-0.24836-0.16933-0.54939-0.16933-0.90311h-0.05644c-0.28598 0.42898-0.59455 0.77141-0.92569 1.0273-0.32362 0.25588-0.65099 0.45156-0.98213 0.58702-0.33114 0.12794-0.65852 0.21073-0.98213 0.24836-0.31609 0.03763-0.60208 0.05644-0.85796 0.05644zm1.7949-1.8514c0.16557 0 0.3349-0.01505 0.508-0.04516 0.18062-0.03011 0.35748-0.08279 0.53058-0.15804 0.1731-0.08279 0.3349-0.18438 0.48542-0.3048 0.15804-0.12794 0.29727-0.28598 0.41769-0.47413l0.01129-3.1722c-0.54187 0-1.0348 0.04139-1.4788 0.12418-0.4365 0.08279-0.8128 0.21825-1.1289 0.4064-0.30856 0.18062-0.54939 0.41769-0.72249 0.7112-0.16557 0.29351-0.24836 0.65099-0.24836 1.0724 0 0.36124 0.04892 0.65852 0.14676 0.89182 0.10536 0.2333 0.2333 0.42145 0.38382 0.56444 0.15804 0.14299 0.33114 0.24459 0.51929 0.3048 0.19567 0.05268 0.38758 0.07902 0.57573 0.07902z" style="color-rendering:auto;color:#000000;dominant-baseline:auto;font-feature-settings:normal;font-variant-alternates:normal;font-variant-caps:normal;font-variant-east-asian:normal;font-variant-ligatures:normal;font-variant-numeric:normal;font-variant-position:normal;font-variation-settings:normal;image-rendering:auto;inline-size:0;isolation:auto;mix-blend-mode:normal;shape-margin:0;shape-padding:0;shape-rendering:auto;solid-color:#000000;stop-color:#000000;text-decoration-color:#000000;text-decoration-line:none;text-decoration-style:solid;text-indent:0;text-orientation:mixed;text-transform:none;white-space:normal"/>
   <path d="m52.414 79.9c-0.50209 0-0.97469 0.03065-1.418 0.0918-0.44084 0.06081-0.85944 0.14113-1.2559 0.24023l2e-3 -2e-3c-0.38817 0.09133-0.75393 0.1981-1.0977 0.32031-0.34024 0.11345-0.66168 0.2303-0.96484 0.35156l-0.0957 0.03906 0.35742 2.668h0.66406l0.03516-0.02344c0.21178-0.14371 0.47221-0.32438 0.78125-0.54297 0.30477-0.223 0.63014-0.43568 0.97266-0.63672v-2e-3c0.34041-0.20721 0.68461-0.3794 1.0312-0.51953l2e-3 -2e-3c0.34088-0.14505 0.6545-0.21484 0.94141-0.21484 0.27547 0 0.50297 0.03258 0.67969 0.09375 0.17434 0.06035 0.30391 0.15261 0.40039 0.28125v2e-3l2e-3 2e-3c0.10181 0.12726 0.17817 0.31241 0.2207 0.56055v4e-3c0.05013 0.2435 0.07617 0.54773 0.07617 0.91016l-0.0098 1.291c-0.06054-0.0043-0.1084-0.0075-0.19141-0.01172h-0.0078c-0.14128-0.01485-0.28958-0.03009-0.44531-0.04492-0.15993-0.01523-0.31613-0.02752-0.46875-0.03516-0.14422-0.0076-0.25428-0.01172-0.33398-0.01172-0.36222 0-0.74953 0.03475-1.1621 0.10352-0.40636 0.06145-0.81338 0.16115-1.2188 0.29883-0.39954 0.13075-0.78632 0.3048-1.1621 0.51953h-2e-3c-0.37163 0.21678-0.70098 0.47647-0.98828 0.7793-0.28973 0.30539-0.522 0.66139-0.69336 1.0664h2e-3c-0.1736 0.40243-0.25976 0.85464-0.25976 1.3516 0 0.42284 0.07802 0.83568 0.23438 1.2344 0.15622 0.39837 0.37598 0.7509 0.6582 1.0566h2e-3v2e-3c0.29051 0.30622 0.63956 0.55314 1.0449 0.74023h2e-3c0.41012 0.1814 0.8701 0.27148 1.375 0.27148 0.26241 0 0.55277-0.01852 0.87305-0.05664 0.33564-0.03903 0.67497-0.1262 1.0156-0.25781h2e-3c0.34427-0.14084 0.68169-0.34297 1.0137-0.60547 0.29276-0.22623 0.55586-0.54808 0.81055-0.89844 0.02186 0.26035 0.04395 0.52052 0.13672 0.72461l2e-3 2e-3c0.12911 0.2663 0.30991 0.48671 0.53906 0.65039h2e-3l2e-3 2e-3c0.23367 0.15309 0.51032 0.26336 0.82422 0.33398 0.31964 0.07016 0.67235 0.10547 1.0566 0.10547 0.26046 1e-6 0.53763-0.03574 0.83203-0.10547 0.29106-0.06893 0.57109-0.15213 0.83984-0.25195 0.26717-0.09923 0.50878-0.20263 0.72461-0.31055v-2e-3c0.22118-0.1144 0.39536-0.21272 0.52344-0.30078l0.05664-0.04102v-1.1172h-0.42969l-0.01367 0.0039c-0.16429 0.03734-0.3402 0.0739-0.52734 0.11133-0.18184 0.02894-0.32224 0.04297-0.41406 0.04297-0.13629 0-0.25087-0.01622-0.3457-0.04687-9.08e-4 -3.63e-4 -1e-3 -0.0016-2e-3 -2e-3 -0.09783-0.0394-0.18084-0.08713-0.25-0.14258-0.06077-0.06144-0.11077-0.12964-0.14844-0.20898v-2e-3c-0.03065-0.08036-0.04687-0.17153-0.04687-0.27734l0.04492-5.7344c0.0077-0.7399-0.1321-1.3632-0.42578-1.8633-0.28757-0.49657-0.66415-0.89404-1.125-1.1836-0.45842-0.29526-0.97833-0.5013-1.5566-0.61719h-2e-3c-0.57266-0.12203-1.1474-0.18359-1.7207-0.18359zm0 0.26562c0.55497 0 1.1104 0.05921 1.666 0.17773l2e-3 2e-3c0.54982 0.10996 1.0377 0.30173 1.4668 0.57812v2e-3h2e-3c0.42536 0.26675 0.77039 0.62902 1.0391 1.0938 0.26323 0.44821 0.39602 1.0215 0.38867 1.7266l-0.04687 5.7363c0 0.13429 0.02221 0.26008 0.06641 0.375l4e-3 0.0078c0.05151 0.1116 0.12078 0.21258 0.20703 0.29883l0.0039 0.0039 0.0059 0.0039c0.09452 0.07734 0.20434 0.14189 0.32812 0.19141h0.0039l0.0039 2e-3c0.12974 0.04324 0.27588 0.0625 0.4375 0.0625 0.11805 0 0.26896-0.01615 0.46094-0.04687h4e-3c0.18571-0.03714 0.36118-0.0741 0.52539-0.11133h0.12891v0.70508c-0.1105 0.07232-0.24507 0.15343-0.43555 0.25195-0.20526 0.10255-0.43823 0.20262-0.69726 0.29883-0.25806 0.09585-0.52768 0.17566-0.80859 0.24219-0.27757 0.06574-0.53328 0.09961-0.76953 0.09961-0.36759 0-0.701-0.03456-0.99805-0.09961h-2e-3c-0.28666-0.0647-0.53032-0.16474-0.73242-0.29688h-2e-3c-0.18964-0.13654-0.33677-0.31573-0.44748-0.54309-0.10303-0.22667-0.1582-0.50811-0.1582-0.84766v-0.13281h-0.26172l-0.03906 0.05859c-0.2796 0.41941-0.57916 0.75089-0.89648 0.99609v2e-3c-0.31401 0.24829-0.63051 0.43636-0.94726 0.56641-6.21e-4 2.4e-4 -0.0013-2.39e-4 -2e-3 0-7.68e-4 3.16e-4 -0.0012 0.0016-2e-3 2e-3 -0.32018 0.12334-0.63703 0.20221-0.94726 0.23828-0.3119 0.03713-0.59244 0.05664-0.8418 0.05664-0.47277 0-0.89346-0.08374-1.2656-0.24805h-2e-3c-0.37654-0.17415-0.69475-0.4013-0.9608-0.68173-0.2591-0.281-0.46086-0.60391-0.60547-0.97266-0.14468-0.36895-0.2168-0.74676-0.2168-1.1367 0-0.4664 0.08074-0.88088 0.23828-1.2461 0.15978-0.37768 0.37344-0.70665 0.64062-0.98828 0.26927-0.28383 0.57743-0.52792 0.92773-0.73242 0.36123-0.20642 0.73267-0.37102 1.1152-0.49609l2e-3 -2e-3c0.39176-0.13305 0.78305-0.22812 1.1738-0.28711h2e-3c0.40022-0.0667 0.77392-0.09961 1.1191-0.09961 0.07082 0 0.17854 0.0023 0.32031 0.0098 0.14842 0.0074 0.30087 0.01833 0.45703 0.0332 0.15765 0.01502 0.30671 0.02992 0.44922 0.04492l0.0039 2e-3h0.0039c0.14941 0.0075 0.26115 0.01439 0.33203 0.02148l0.14648 0.01563 0.01172-1.582c0-0.3736-0.02726-0.69139-0.08203-0.95898-0.04765-0.27799-0.13696-0.50607-0.27539-0.67969-0.1291-0.17063-0.30787-0.29843-0.52344-0.37305-0.21463-0.07429-0.46912-0.10742-0.76562-0.10742-0.33022 0-0.67836 0.08034-1.0449 0.23633-0.35999 0.14568-0.7152 0.32529-1.0664 0.53906v-2e-3c-0.34987 0.20536-0.67983 0.42379-0.99219 0.65234-0.29372 0.20773-0.53808 0.37676-0.74219 0.51562h-0.34961l-0.29891-2.2285c0.27178-0.10668 0.55292-0.21165 0.85547-0.3125h4e-3c0.3336-0.11862 0.68888-0.22321 1.0684-0.3125h2e-3c0.38628-0.09657 0.79635-0.17476 1.2285-0.23438 0.42973-0.05927 0.88953-0.08984 1.3809-0.08984zm1.457 5.6953c-0.54865 0-1.0503 0.04043-1.5039 0.125v2e-3c-0.44887 0.08513-0.84001 0.22434-1.1719 0.42188-0.32634 0.19103-0.58492 0.44477-0.76953 0.75781v2e-3h-2e-3c-0.17897 0.31727-0.26562 0.69978-0.26562 1.1387 0 0.37327 0.05088 0.68744 0.1582 0.94336v2e-3l2e-3 2e-3c0.11095 0.24568 0.24662 0.44825 0.41211 0.60547h2e-3l2e-3 2e-3c0.17065 0.1544 0.35942 0.2658 0.56641 0.33203l0.0039 2e-3h2e-3c0.20602 0.05547 0.41075 0.08398 0.61133 0.08398 0.17301 0 0.34982-0.01577 0.5293-0.04687 0.19157-0.03193 0.37982-0.08855 0.5625-0.16797h2e-3l2e-3 -2e-3c0.18222-0.08715 0.35338-0.19364 0.51172-0.32031 0.17-0.13762 0.31998-0.30697 0.44726-0.50586l0.01953-0.0332 0.01172-3.3438zm-0.13281 0.27734-0.01172 2.9785c-0.10908 0.16475-0.23091 0.30802-0.36914 0.41992-0.14232 0.1137-0.29551 0.20892-0.45898 0.28711-0.16165 0.06974-0.32647 0.12049-0.49414 0.14844h-2e-3c-0.16603 0.02888-0.32688 0.04297-0.48438 0.04297-0.17447 0-0.35317-0.02503-0.53711-0.07422h-0.0039c-0.16631-0.05411-0.31967-0.14434-0.46289-0.27344l-2e-3 -2e-3c-0.1338-0.12766-0.2506-0.29972-0.34952-0.51753v-2e-3c-0.08797-0.21053-0.13672-0.48946-0.13672-0.83789 0-0.40326 0.07885-0.73637 0.23047-1.0059 0.16158-0.27398 0.38304-0.49384 0.67383-0.66406h2e-3c0.30031-0.17876 0.65985-0.30823 1.084-0.38867 0.39477-0.0736 0.84436-0.10454 1.3223-0.11133z" style="color-rendering:auto;color:#000000;dominant-baseline:auto;font-feature-settings:normal;font-variant-alternates:normal;font-variant-caps:normal;font-variant-east-asian:normal;font-variant-ligatures:normal;font-variant-numeric:normal;font-variant-position:normal;font-variation-settings:normal;image-rendering:auto;inline-size:0;isolation:auto;mix-blend-mode:normal;shape-margin:0;shape-padding:0;shape-rendering:auto;solid-color:#000000;stop-color:#000000;text-decoration-color:#000000;text-decoration-line:none;text-decoration-style:solid;text-indent:0;text-orientation:mixed;text-transform:none;white-space:normal"/>
  </g>
  <g transform="matrix(1.5315 0 0 1.5524 -15.321 -115.06)" style="stroke-width:.26639">
   <path d="m64.548 91.988c-0.49671 0-0.96332-0.05644-1.3998-0.16933-0.42898-0.10536-0.80527-0.25964-1.1289-0.46284-0.31609-0.21073-0.56444-0.45908-0.74507-0.74507-0.18062-0.29351-0.27093-0.62842-0.27093-1.0047v-7.7442h-1.8401v-1.0273c0.30104-0.06021 0.57573-0.12418 0.82409-0.19191 0.24836-0.07526 0.46284-0.17686 0.64347-0.3048 0.18062-0.12794 0.32361-0.29727 0.42898-0.508s0.16933-0.48918 0.19191-0.83538l0.09031-1.5014 2.89-0.44027v3.3641h4.0188l-0.25964 1.445h-3.7592v6.9088c0 0.24083 0.07526 0.45532 0.22578 0.64347 0.15804 0.18062 0.34619 0.3349 0.56444 0.46284 0.21825 0.12042 0.44779 0.21449 0.68862 0.28222 0.24836 0.06773 0.46284 0.1016 0.64347 0.1016 0.12042 0 0.24836-0.0075 0.38382-0.02258 0.13547-0.01505 0.26717-0.03011 0.39511-0.04516 0.13547-0.01505 0.25964-0.03387 0.37253-0.05644 0.12042-0.02258 0.22202-0.04139 0.3048-0.05644h0.34996v0.86924c-0.12794 0.06773-0.31233 0.16181-0.55316 0.28222-0.24083 0.11289-0.51929 0.22578-0.83538 0.33867s-0.66604 0.21073-1.0499 0.29351c-0.3763 0.08278-0.76764 0.12418-1.174 0.12418z" style="color-rendering:auto;color:#000000;dominant-baseline:auto;font-feature-settings:normal;font-variant-alternates:normal;font-variant-caps:normal;font-variant-east-asian:normal;font-variant-ligatures:normal;font-variant-numeric:normal;font-variant-position:normal;font-variation-settings:normal;image-rendering:auto;inline-size:0;isolation:auto;mix-blend-mode:normal;shape-margin:0;shape-padding:0;shape-rendering:auto;solid-color:#000000;stop-color:#000000;text-decoration-color:#000000;text-decoration-line:none;text-decoration-style:solid;text-indent:0;text-orientation:mixed;text-transform:none;white-space:normal"/>
   <path d="m64.365 76.898-3.1504 0.48047-0.0957 1.6074c-0.02182 0.33452-0.08567 0.59712-0.17969 0.78516-0.09657 0.19314-0.22427 0.34392-0.38672 0.45898-0.16653 0.11796-0.36588 0.21151-0.60156 0.2832-0.24484 0.06678-0.51593 0.1317-0.81445 0.19141l-0.10742 0.02148v1.2695h1.8398v7.6113c0 0.39761 0.09708 0.75907 0.29102 1.0742h2e-3c0.19147 0.30316 0.45372 0.5655 0.7832 0.78516l2e-3 2e-3h2e-3c0.33728 0.21178 0.72531 0.37222 1.166 0.48047v-2e-3c0.44836 0.11596 0.92484 0.17383 1.4316 0.17383 0.41544 0 0.817-0.04201 1.2031-0.12695 0.38865-0.08383 0.74395-0.18366 1.0664-0.29883 0.31924-0.11401 0.602-0.22664 0.84766-0.3418l2e-3 -2e-3c0.24132-0.12066 0.427-0.21457 0.55664-0.2832l0.07031-0.03906v-1.082h-0.49414l-0.01172 2e-3c-0.08314 0.01511-0.18606 0.03403-0.30664 0.05664h-2e-3c-0.10843 0.02168-0.22714 0.03999-0.35938 0.05469h-2e-3c-0.12764 0.01502-0.25933 0.0299-0.39453 0.04492-0.13116 0.01457-0.25428 0.02344-0.36914 0.02344-0.16397 0-0.36698-0.03208-0.60742-0.09766-0.23112-0.065-0.4508-0.15402-0.66016-0.26953h0.0039c-0.20676-0.1212-0.38295-0.26606-0.53125-0.43555-0.13038-0.16506-0.19336-0.34382-0.19336-0.55469v-6.7754h3.7363l0.30859-1.7129h-4.0449zm-0.26758 0.31055v3.3418h3.9941l-0.21289 1.1777h-3.7812v7.043c0 0.26858 0.08802 0.51677 0.25586 0.72656l4e-3 4e-3c0.16779 0.19176 0.36791 0.35556 0.59766 0.49024l2e-3 2e-3c0.22715 0.12532 0.46626 0.2225 0.7168 0.29297h2e-3v2e-3c0.25626 0.06989 0.48046 0.10547 0.67774 0.10547 0.12596 0 0.25866-0.0079 0.39844-0.02344 0.13574-0.01508 0.26824-0.02983 0.39648-0.04492 0.138-0.01533 0.26399-0.03529 0.38086-0.05859 0.11638-0.02182 0.21396-0.03995 0.29492-0.05469h0.20312v0.6543c-0.12296 0.06432-0.27068 0.1412-0.48047 0.24609-0.23522 0.11009-0.50891 0.22082-0.82031 0.33203-0.30972 0.11062-0.65421 0.20732-1.0332 0.28906-0.36647 0.08062-0.74913 0.12109-1.1465 0.12109-0.48662 0-0.94059-0.05619-1.3652-0.16602h-2e-3c-0.41725-0.10248-0.7799-0.25069-1.0898-0.44531-0.30087-0.20123-0.53405-0.43543-0.70312-0.70312-0.16731-0.27187-0.25-0.57861-0.25-0.93359v-7.8789h-1.8398v-0.78906c0.25849-0.05375 0.50529-0.10815 0.72461-0.16797h4e-3c0.25983-0.07873 0.48757-0.18675 0.68164-0.32422 0.1988-0.14082 0.35655-0.32833 0.4707-0.55664 0.11671-0.23342 0.18369-0.52885 0.20703-0.88672l0.08398-1.3945z" style="color-rendering:auto;color:#000000;dominant-baseline:auto;font-feature-settings:normal;font-variant-alternates:normal;font-variant-caps:normal;font-variant-east-asian:normal;font-variant-ligatures:normal;font-variant-numeric:normal;font-variant-position:normal;font-variation-settings:normal;image-rendering:auto;inline-size:0;isolation:auto;mix-blend-mode:normal;shape-margin:0;shape-padding:0;shape-rendering:auto;solid-color:#000000;stop-color:#000000;text-decoration-color:#000000;text-decoration-line:none;text-decoration-style:solid;text-indent:0;text-orientation:mixed;text-transform:none;white-space:normal"/>
  </g>
  <g transform="matrix(1.5315 0 0 1.5524 -15.321 -115.06)" style="stroke-width:.26639">
   <path d="m74.139 92.034c-0.85043 0-1.6068-0.14676-2.2691-0.44027-0.65476-0.30104-1.2079-0.70744-1.6595-1.2192-0.44403-0.51929-0.7827-1.1214-1.016-1.8062-0.22578-0.69238-0.33867-1.4337-0.33867-2.2239 0-0.57197 0.06397-1.1251 0.19191-1.6595 0.13547-0.53434 0.33114-1.0311 0.58702-1.4901 0.26341-0.46661 0.5795-0.89182 0.94827-1.2756 0.36877-0.38382 0.79022-0.7112 1.2644-0.98213s0.99718-0.48166 1.5692-0.63218c0.57197-0.15052 1.1853-0.22578 1.8401-0.22578 0.42145 0 0.80527 0.03387 1.1515 0.1016 0.34619 0.06021 0.65476 0.13547 0.92569 0.22578 0.27846 0.09031 0.51929 0.18815 0.72249 0.29351 0.21073 0.09784 0.38382 0.18062 0.51929 0.24836l-0.31609 2.5174h-0.53058c-0.27846-0.2032-0.5795-0.4064-0.90311-0.6096-0.32362-0.21073-0.65099-0.40264-0.98213-0.57573-0.33114-0.1731-0.66228-0.31233-0.99342-0.41769-0.32362-0.11289-0.62842-0.16933-0.9144-0.16933-0.18062 0-0.34243 0.04892-0.48542 0.14676-0.14299 0.09784-0.30104 0.25964-0.47413 0.48542-0.09031 0.12042-0.18062 0.28599-0.27093 0.49671-0.09031 0.2032-0.1731 0.44779-0.24836 0.73378-0.06773 0.28598-0.12418 0.6096-0.16933 0.97084-0.04515 0.35372-0.06773 0.74507-0.06773 1.174 0 0.69991 0.06397 1.3208 0.19191 1.8627 0.13547 0.53434 0.34243 0.9859 0.62089 1.3547 0.28598 0.36877 0.64347 0.65099 1.0724 0.84667 0.4365 0.19567 0.95579 0.29351 1.5579 0.29351 0.29351 0 0.57573-0.03387 0.84667-0.1016s0.52305-0.15052 0.75636-0.24836c0.24083-0.10536 0.45908-0.21825 0.65476-0.33867 0.2032-0.12042 0.38758-0.2333 0.55316-0.33867h0.36124v1.095c-0.26341 0.21825-0.56068 0.44403-0.89182 0.67733-0.33114 0.22578-0.69238 0.42898-1.0837 0.6096-0.39135 0.18062-0.81656 0.32738-1.2756 0.44027-0.45156 0.12042-0.93321 0.18062-1.445 0.18062z" style="color-rendering:auto;color:#000000;dominant-baseline:auto;font-feature-settings:normal;font-variant-alternates:normal;font-variant-caps:normal;font-variant-east-asian:normal;font-variant-ligatures:normal;font-variant-numeric:normal;font-variant-position:normal;font-variation-settings:normal;image-rendering:auto;inline-size:0;isolation:auto;mix-blend-mode:normal;shape-margin:0;shape-padding:0;shape-rendering:auto;solid-color:#000000;stop-color:#000000;text-decoration-color:#000000;text-decoration-line:none;text-decoration-style:solid;text-indent:0;text-orientation:mixed;text-transform:none;white-space:normal"/>
   <path d="m75.256 79.945c-0.66496 0-1.289 0.07677-1.873 0.23047-0.58223 0.15322-1.1166 0.36742-1.6016 0.64453-0.48474 0.277-0.91724 0.61276-1.2949 1.0059-0.37648 0.39184-0.69995 0.82657-0.96875 1.3027-0.26171 0.46955-0.46147 0.97854-0.59961 1.5234v2e-3c-0.13045 0.54481-0.19531 1.1076-0.19531 1.6895 0 0.80291 0.1153 1.559 0.3457 2.2656v2e-3c0.23831 0.69955 0.58568 1.3171 1.041 1.8496l2e-3 2e-3c0.46412 0.526 1.0329 0.9438 1.7031 1.252h2e-3c0.68159 0.30207 1.4565 0.45117 2.3223 0.45117 0.52153 0 1.0134-0.06027 1.4766-0.18359 0.46656-0.11473 0.90103-0.26472 1.3008-0.44922 0.39754-0.18348 0.7639-0.38892 1.1016-0.61914l2e-3 -2e-3c0.33353-0.23499 0.63382-0.46272 0.90039-0.68359l0.04883-0.04102v-1.2891h-0.5332l-0.0332 0.01953c-0.16414 0.10445-0.34664 0.21612-0.54883 0.33594l-2e-3 2e-3c-0.18967 0.11672-0.40278 0.22687-0.63867 0.33008-0.22601 0.09467-0.47194 0.17609-0.73633 0.24219-0.25995 0.06499-0.53119 0.09766-0.81445 0.09766-0.58764 0-1.0863-0.09688-1.502-0.2832-0.4104-0.1872-0.74827-0.45434-1.0215-0.80664-0.26526-0.3517-0.4659-0.78389-0.59766-1.3027v-2e-3c-0.12473-0.529-0.1875-1.139-0.1875-1.8301 0-0.4243 0.02211-0.81119 0.06641-1.1582 0.0445-0.35599 0.1-0.67372 0.16602-0.95312 0.0739-0.28081 0.15376-0.51834 0.24023-0.71289l2e-3 -2e-3c0.08732-0.20374 0.17341-0.36115 0.25391-0.46875v-2e-3c0.16753-0.21832 0.31938-0.37025 0.44336-0.45508 0.12142-0.08308 0.25358-0.12305 0.41016-0.12305 0.26846 0 0.559 0.05324 0.87109 0.16211h2e-3l2e-3 2e-3c0.32328 0.10286 0.64588 0.23841 0.9707 0.4082 0.32726 0.17107 0.65052 0.35987 0.9707 0.56836l2e-3 2e-3c0.32125 0.20172 0.6208 0.40234 0.89648 0.60352l0.03516 0.02539h0.69141l0.3418-2.7266-0.08398-0.04297c-0.13588-0.067883-0.30982-0.14953-0.51788-0.24619-0.21147-0.10965-0.45831-0.21067-0.74219-0.30273-0.27757-0.092524-0.59157-0.16946-0.94141-0.23047h-0.0039c-0.35526-0.069228-0.74666-0.10352-1.1738-0.10352zm0 0.26563c0.41432 0 0.79076 0.03383 1.127 0.09961h2e-3c0.3409 0.05929 0.64304 0.13492 0.90625 0.22266h2e-3c0.27304 0.08855 0.50624 0.18408 0.70117 0.28516h0.0039l2e-3 2e-3c0.17562 0.08154 0.3093 0.14493 0.43164 0.20508l-0.28906 2.3066h-0.37305c-0.27078-0.19629-0.55937-0.39209-0.87109-0.58789l-2e-3 -2e-3c-0.32631-0.21238-0.65794-0.40536-0.99219-0.58008-0.33746-0.1764-0.67467-0.31792-1.0137-0.42578-0.33369-0.116-0.65276-0.17578-0.95508-0.17578-0.20467 0-0.39598 0.05733-0.56055 0.16992-0.16173 0.11066-0.32569 0.28121-0.50391 0.51367h-2e-3v2e-3c-0.0999 0.1332-0.19408 0.30638-0.28711 0.52344-0.0938 0.21143-0.17752 0.4617-0.25391 0.75195v2e-3l-2e-3 2e-3c-0.0691 0.29176-0.12624 0.61929-0.17188 0.98438-0.04601 0.36043-0.06836 0.75776-0.06836 1.1914 0 0.70803 0.06442 1.3382 0.19531 1.8926v2e-3h2e-3c0.13902 0.54834 0.35174 1.0172 0.64258 1.4023l2e-3 2e-3c0.29876 0.38524 0.67354 0.68062 1.1211 0.88477l2e-3 2e-3c0.45736 0.20502 0.99482 0.30469 1.6113 0.30469 0.30376 0 0.59699-0.03499 0.87891-0.10547 0.27684-0.06921 0.53524-0.15515 0.77539-0.25586h2e-3c0.24491-0.10715 0.46879-0.22208 0.66992-0.3457l2e-3 -2e-3c0.19034-0.11282 0.36157-0.21836 0.51953-0.31836h0.19141v0.89648c-0.24943 0.20455-0.52343 0.41401-0.83398 0.63281-0.32462 0.22133-0.6793 0.41989-1.0645 0.59766-0.38294 0.17674-0.79839 0.32254-1.25 0.43359h-4e-3c-0.43945 0.11719-0.90884 0.17578-1.4102 0.17578-0.83511 0-1.5719-0.14473-2.2148-0.42969-0.63814-0.2938-1.1749-0.6887-1.6133-1.1855-0.43182-0.50535-0.76215-1.0889-0.99024-1.7578v-2e-3c-0.22076-0.67768-0.33203-1.4048-0.33203-2.1816 0-0.56204 0.06402-1.105 0.18945-1.6289 0.13276-0.52281 0.32262-1.0072 0.57227-1.4551 0.25801-0.45705 0.56862-0.87224 0.92969-1.248 0.35986-0.37455 0.77085-0.69411 1.2344-0.95898 0.46333-0.26476 0.97345-0.47132 1.5352-0.61914 0.55987-0.14734 1.1621-0.22266 1.8066-0.22266z" style="color-rendering:auto;color:#000000;dominant-baseline:auto;font-feature-settings:normal;font-variant-alternates:normal;font-variant-caps:normal;font-variant-east-asian:normal;font-variant-ligatures:normal;font-variant-numeric:normal;font-variant-position:normal;font-variation-settings:normal;image-rendering:auto;inline-size:0;isolation:auto;mix-blend-mode:normal;shape-margin:0;shape-padding:0;shape-rendering:auto;solid-color:#000000;stop-color:#000000;text-decoration-color:#000000;text-decoration-line:none;text-decoration-style:solid;text-indent:0;text-orientation:mixed;text-transform:none;white-space:normal"/>
  </g>
  <g transform="matrix(1.5315 0 0 1.5524 -15.321 -115.06)" style="stroke-width:.26639">
   <path d="m79.724 90.995 1.1966-0.42898c0.15052-0.06021 0.26717-0.13547 0.34996-0.22578 0.09031-0.09031 0.13547-0.21449 0.13547-0.37253v-12.79c0-0.18062-0.05268-0.33114-0.15804-0.45156-0.09784-0.12042-0.24836-0.21825-0.45156-0.29351l-1.1966-0.48542v-0.69991l5.0348-0.68862v6.7733l-0.03387 0.73378c0.31609-0.44403 0.62842-0.79775 0.93698-1.0612 0.31609-0.27093 0.62842-0.47413 0.93698-0.6096 0.30856-0.14299 0.6096-0.23707 0.90311-0.28222 0.30104-0.04515 0.60207-0.06773 0.90311-0.06773 0.50424 0 0.98213 0.07526 1.4337 0.22578 0.45156 0.14299 0.8429 0.3763 1.174 0.69991 0.33867 0.31609 0.60584 0.72625 0.80151 1.2305s0.29351 1.1101 0.29351 1.8175v5.8928c0 0.18062 0.04516 0.31985 0.13547 0.41769 0.09031 0.09784 0.2032 0.17686 0.33867 0.23707l1.0724 0.42898v0.77893h-6.3218v-0.77893l1.0612-0.42898c0.12794-0.05268 0.23707-0.12794 0.32738-0.22578 0.09784-0.10536 0.14676-0.24836 0.14676-0.42898v-4.73c0-0.51929-0.02634-0.97084-0.07902-1.3547-0.05268-0.39135-0.15052-0.71496-0.29351-0.97084-0.13547-0.26341-0.3349-0.45908-0.59831-0.58702-0.25588-0.13547-0.59455-0.2032-1.016-0.2032-0.1731 0-0.35748 0.01129-0.55316 0.03387-0.18815 0.01505-0.38006 0.05645-0.57573 0.12418-0.18815 0.06021-0.36877 0.15428-0.54187 0.28222-0.1731 0.12042-0.32361 0.28598-0.45156 0.49671v6.954c0 0.16557 0.04516 0.29351 0.13547 0.38382 0.09031 0.08279 0.20696 0.15804 0.34996 0.22578l0.9144 0.42898v0.77893h-6.3105z" style="color-rendering:auto;color:#000000;dominant-baseline:auto;font-feature-settings:normal;font-variant-alternates:normal;font-variant-caps:normal;font-variant-east-asian:normal;font-variant-ligatures:normal;font-variant-numeric:normal;font-variant-position:normal;font-variation-settings:normal;image-rendering:auto;inline-size:0;isolation:auto;mix-blend-mode:normal;shape-margin:0;shape-padding:0;shape-rendering:auto;solid-color:#000000;stop-color:#000000;text-decoration-color:#000000;text-decoration-line:none;text-decoration-style:solid;text-indent:0;text-orientation:mixed;text-transform:none;white-space:normal"/>
   <path d="m84.768 74.406-5.3008 0.72461v0.90625l1.2812 0.51953h2e-3c0.18803 0.06964 0.31659 0.15798 0.39453 0.25391l4e-3 4e-3c0.08363 0.09558 0.125 0.20856 0.125 0.36328v12.789c0 0.13267-0.03482 0.21646-0.09766 0.2793l-4e-3 4e-3c-0.06478 0.07067-0.16244 0.137-0.29688 0.19141h-2e-3c-1e-3 4.15e-4 -9.19e-4 0.0015-2e-3 2e-3l-1.2793 0.45703v1.0059h6.5762v-0.99609l-0.99024-0.46484c-0.13133-0.06221-0.23511-0.12929-0.3125-0.19922-0.06153-0.06153-0.09766-0.14771-0.09766-0.28906v-6.9062c0.11592-0.18406 0.24604-0.33225 0.39453-0.43555l2e-3 -2e-3h2e-3c0.16258-0.12017 0.3286-0.2082 0.50195-0.26367h4e-3c0.18609-0.06441 0.36699-0.10311 0.54297-0.11719h4e-3c0.19123-0.02207 0.37176-0.0332 0.53906-0.0332 0.40718 0 0.72397 0.06618 0.95313 0.1875h2e-3l2e-3 2e-3c0.23917 0.11617 0.41564 0.28736 0.53906 0.52734v2e-3l2e-3 2e-3c0.13229 0.23672 0.22628 0.54447 0.27734 0.92383 0.05158 0.3758 0.07813 0.82311 0.07813 1.3379v4.7305c0 0.15657-0.03932 0.26034-0.11133 0.33789-0.07713 0.08356-0.16995 0.14753-0.28125 0.19336l-1.1426 0.46094v1.002h6.5879v-1.002l-1.1562-0.46094c-0.11901-0.0535-0.2149-0.12262-0.29102-0.20508-0.0626-0.06782-0.09961-0.16775-0.09961-0.32617v-5.8945c0-0.71972-0.09946-1.3414-0.30274-1.8652-0.20167-0.51906-0.47816-0.94646-0.8324-1.2777-0.34536-0.33752-0.75511-0.58152-1.2246-0.73047h-2e-3c-0.46513-0.15482-0.95779-0.23242-1.4746-0.23242-0.3077 0-0.61635 0.02224-0.92383 0.06836-0.3063 0.04712-0.61846 0.14638-0.93555 0.29297-0.32316 0.14188-0.64668 0.35117-0.9707 0.62891-0.23322 0.19909-0.46582 0.49919-0.69922 0.79297l0.01563-0.36133zm-0.26562 0.30469v6.6172l-0.05469 1.1836 0.26172-0.36914c0.31143-0.43749 0.61848-0.78312 0.91602-1.0371 0.30816-0.26414 0.61033-0.45883 0.9043-0.58789v-2e-3h2e-3c0.2988-0.13847 0.58763-0.22848 0.86719-0.27148 0.2946-0.04419 0.58843-0.06641 0.88281-0.06641 0.49098 0 0.95318 0.07294 1.3906 0.21875h2e-3v2e-3c0.43292 0.13709 0.80458 0.35865 1.1211 0.66797h2e-3l2e-3 2e-3c0.32219 0.30071 0.57788 0.69281 0.76758 1.1816 0.18807 0.48465 0.28516 1.0724 0.28516 1.7676v5.8945c0 0.20282 0.0519 0.37996 0.16992 0.50781 0.10359 0.11222 0.23292 0.20096 0.38281 0.26758l2e-3 2e-3 0.99023 0.39648v0.55469h-6.0547v-0.55664l0.97852-0.39453c0.14458-0.05953 0.27151-0.14765 0.375-0.25976 0.12281-0.13305 0.18164-0.31359 0.18164-0.51758v-4.7305c0-0.52379-0.0263-0.98121-0.08008-1.373-0.05407-0.4017-0.15398-0.73922-0.30664-1.0137l-2e-3 -2e-3c-0.14686-0.28428-0.36743-0.5032-0.65234-0.64258-0.28261-0.14962-0.6424-0.21875-1.0781-0.21875-0.17889 0-0.36824 0.01206-0.56836 0.03516-0.1979 0.01617-0.39884 0.06101-0.60156 0.13086-0.20212 0.06468-0.39517 0.16393-0.57812 0.29883-0.19037 0.13243-0.35235 0.31323-0.48828 0.53711l-0.01953 0.03125v6.9922c0 0.18979 0.05474 0.35747 0.17383 0.47656l2e-3 0.0039 2e-3 2e-3c0.10278 0.09422 0.23065 0.17402 0.38281 0.24609v2e-3l0.83984 0.39258v0.56055h-6.0449v-0.55078l1.1113-0.39844 2e-3 -2e-3c0.16216-0.06486 0.2949-0.14856 0.39453-0.25586v-2e-3c0.1169-0.1177 0.17383-0.2821 0.17383-0.46484v-12.789c0-0.20586-0.06512-0.39205-0.19141-0.53711-0.11682-0.14233-0.28539-0.25192-0.5-0.33203l-0.0039-2e-3 -1.1113-0.44922v-0.49414z" style="color-rendering:auto;color:#000000;dominant-baseline:auto;font-feature-settings:normal;font-variant-alternates:normal;font-variant-caps:normal;font-variant-east-asian:normal;font-variant-ligatures:normal;font-variant-numeric:normal;font-variant-position:normal;font-variation-settings:normal;image-rendering:auto;inline-size:0;isolation:auto;mix-blend-mode:normal;shape-margin:0;shape-padding:0;shape-rendering:auto;solid-color:#000000;stop-color:#000000;text-decoration-color:#000000;text-decoration-line:none;text-decoration-style:solid;text-indent:0;text-orientation:mixed;text-transform:none;white-space:normal"/>
  </g>
  <g transform="matrix(1.5315 0 0 1.5524 -15.321 -115.06)" style="stroke-width:.26639">
   <path d="m106.73 92.135c-0.44403 0-0.89935-0.0301-1.366-0.09031-0.45908-0.05268-0.91816-0.12418-1.3772-0.21449-0.45908-0.09031-0.9144-0.19567-1.366-0.31609-0.45155-0.12042-0.88429-0.24459-1.2982-0.37253l-0.19191-4.5381h1.0499l0.86924 2.2126c0.0226 0.05268 0.0527 0.10536 0.0903 0.15804 0.0451 0.05268 0.0903 0.10912 0.13547 0.16933 0.0527 0.05268 0.10158 0.1016 0.14675 0.14676 0.0527 0.04515 0.0978 0.07902 0.13547 0.1016 0.24083 0.15804 0.51929 0.30856 0.83538 0.45156 0.31609 0.13547 0.63594 0.25588 0.95955 0.36124 0.33114 0.09784 0.65099 0.17686 0.95956 0.23707 0.30856 0.06021 0.58326 0.09031 0.82409 0.09031 0.44403 0 0.84666-0.06397 1.2079-0.19191 0.36877-0.12794 0.68109-0.3048 0.93698-0.53058 0.25588-0.22578 0.45155-0.48919 0.58702-0.79022 0.14299-0.30104 0.21449-0.62841 0.21449-0.98213 0-0.30104-0.0452-0.56821-0.13547-0.80151-0.0828-0.2333-0.21073-0.44403-0.38382-0.63218-0.1731-0.18815-0.38759-0.35372-0.64347-0.49671-0.24835-0.15052-0.54186-0.29351-0.88053-0.42898-0.30104-0.11289-0.60208-0.21449-0.90311-0.3048-0.29351-0.09031-0.58703-0.17686-0.88054-0.25964-0.29351-0.08279-0.58702-0.16933-0.88053-0.25964-0.28599-0.09031-0.57197-0.19191-0.85795-0.3048-0.45909-0.18815-0.87301-0.42145-1.2418-0.69991-0.36125-0.27846-0.66605-0.59455-0.9144-0.94827-0.24836-0.36124-0.44027-0.75259-0.57574-1.174-0.13547-0.42898-0.2032-0.8843-0.2032-1.366 0-0.45908 0.0715-0.89559 0.21449-1.3095 0.14299-0.41393 0.34243-0.79398 0.59831-1.1402 0.26341-0.35372 0.57198-0.66981 0.92569-0.94827 0.35372-0.28598 0.74883-0.52682 1.1853-0.72249 0.4365-0.2032 0.90311-0.35748 1.3998-0.46284 0.49671-0.11289 1.0122-0.16933 1.5466-0.16933 0.46661 0 0.93321 0.02258 1.3998 0.06773 0.46661 0.03763 0.91816 0.09031 1.3547 0.15804 0.44403 0.06773 0.86171 0.14676 1.2531 0.23707 0.39887 0.09031 0.76012 0.18438 1.0837 0.28222v4.2672h-1.0386l-0.80151-2.0772c-0.0376-0.10536-0.1091-0.2032-0.21449-0.29351-0.0978-0.09784-0.18815-0.17686-0.27094-0.23707-0.15804-0.11289-0.35748-0.21825-0.59831-0.31609-0.24083-0.09784-0.49671-0.18062-0.76764-0.24836-0.27093-0.07526-0.54187-0.1317-0.8128-0.16933-0.26341-0.03763-0.49671-0.05644-0.69991-0.05644-0.4064 0-0.77141 0.06021-1.095 0.18062-0.31609 0.11289-0.58703 0.26717-0.8128 0.46284-0.21825 0.19567-0.38383 0.42145-0.49672 0.67733-0.11289 0.24836-0.16933 0.50424-0.16933 0.76764 0 0.27846 0.0339 0.54187 0.1016 0.79022 0.0677 0.24083 0.18439 0.46284 0.34996 0.66604s0.38382 0.39135 0.65475 0.56444c0.27093 0.16557 0.60584 0.31609 1.0047 0.45156 0.27846 0.09784 0.55692 0.18815 0.83538 0.27093 0.27846 0.08279 0.55692 0.16933 0.83538 0.25964 0.28599 0.08279 0.57573 0.1731 0.86924 0.27093 0.29351 0.09784 0.60208 0.21072 0.92569 0.33867 0.38383 0.15804 0.76012 0.35748 1.1289 0.59831 0.36877 0.24083 0.69615 0.53058 0.98213 0.86924 0.28599 0.33867 0.51553 0.73378 0.68863 1.1853 0.17309 0.44403 0.25964 0.94827 0.25964 1.5127 0 0.63218-0.1317 1.2531-0.39511 1.8627-0.25588 0.60207-0.65852 1.1402-1.2079 1.6143-0.54187 0.47413-1.2342 0.85419-2.0772 1.1402-0.83537 0.28598-1.8326 0.42898-2.9916 0.42898z" style="color-rendering:auto;color:#000000;dominant-baseline:auto;font-feature-settings:normal;font-variant-alternates:normal;font-variant-caps:normal;font-variant-east-asian:normal;font-variant-ligatures:normal;font-variant-numeric:normal;font-variant-position:normal;font-variation-settings:normal;image-rendering:auto;inline-size:0;isolation:auto;mix-blend-mode:normal;shape-margin:0;shape-padding:0;shape-rendering:auto;solid-color:#000000;stop-color:#000000;text-decoration-color:#000000;text-decoration-line:none;text-decoration-style:solid;text-indent:0;text-orientation:mixed;text-transform:none;white-space:normal"/>
   <path d="m107.46 75.475c-0.54372 0-1.0694 0.05865-1.5762 0.17383l2e-3 -2e-3c-0.50597 0.10733-0.9817 0.26502-1.4277 0.47266-0.44573 0.19996-0.85031 0.44709-1.2129 0.74023-0.36215 0.28526-0.67902 0.60983-0.94921 0.97266-0.26392 0.35706-0.46993 0.74951-0.61719 1.1758-0.14796 0.42829-0.22266 0.8806-0.22266 1.3535 0 0.49415 0.0712 0.96362 0.21094 1.4062 0.13933 0.43347 0.33614 0.83713 0.5918 1.209h2e-3c0.25636 0.36512 0.57025 0.69242 0.94141 0.97852 0.37846 0.28578 0.80264 0.52465 1.2715 0.7168h2e-3v2e-3c0.2888 0.114 0.57816 0.21537 0.86719 0.30664h2e-3c0.29451 0.09062 0.58829 0.17865 0.88282 0.26172 0.29249 0.0825 0.58443 0.16781 0.87695 0.25781h2e-3c0.29811 0.08943 0.59623 0.19087 0.89453 0.30273 0.33136 0.13277 0.61797 0.27284 0.85743 0.41797l2e-3 2e-3h2e-3c0.24533 0.1371 0.44899 0.29425 0.61133 0.4707 0.16168 0.17575 0.27869 0.37152 0.35547 0.58789l2e-3 2e-3c0.0833 0.21532 0.12696 0.46619 0.12695 0.75391 0 0.33577-0.0688 0.64301-0.20312 0.92578v2e-3c-0.1277 0.28378-0.31209 0.53008-0.55469 0.74414-0.24144 0.21303-0.53772 0.38274-0.89258 0.50586-0.34505 0.12221-0.73282 0.18359-1.1641 0.18359-0.22973 0-0.49666-0.02893-0.79883-0.08789-0.30272-0.05907-0.61741-0.13625-0.94336-0.23242l-4e-3 -2e-3c-0.31758-0.10354-0.63106-0.22059-0.94141-0.35352l-2e-3 -2e-3c-0.30978-0.14027-0.58319-0.2864-0.81641-0.43945l-4e-3 -4e-3c-0.0257-0.01543-0.0646-0.04427-0.10938-0.08203l-8e-3 -0.0059c-0.0434-0.04338-0.0885-0.09041-0.13867-0.14062-0.0402-0.05298-0.0806-0.10474-0.1211-0.15234-0.0327-0.04587-0.0578-0.08994-0.0762-0.13281v0.0039l-0.90234-2.2969h-1.2793l0.20117 4.7715 0.0898 0.02734c0.41571 0.1285 0.85157 0.25222 1.3047 0.37305 0.45441 0.12117 0.91109 0.22748 1.373 0.31836 0.46188 0.09086 0.92471 0.16373 1.3867 0.2168 0.47192 0.06089 0.93276 0.08984 1.3828 0.08984 1.17 0 2.1819-0.14345 3.0352-0.43555 0.85589-0.29039 1.5634-0.67808 2.1211-1.166 0.56276-0.48567 0.97976-1.04 1.2441-1.6621h-2e-3c0.27006-0.62499 0.40625-1.2634 0.40625-1.9141 0-0.57736-0.088-1.0991-0.26758-1.5605v-2e-3c-0.17782-0.46337-0.41502-0.87223-0.71094-1.2227-0.29414-0.34834-0.63221-0.64669-1.0117-0.89453-0.37532-0.2451-0.75843-0.44798-1.1504-0.60938h-2e-3v-2e-3c-0.32562-0.12874-0.63749-0.24114-0.93359-0.33984-0.29374-0.09791-0.58271-0.18851-0.86914-0.27148l-4e-3 -2e-3c-0.27812-0.09016-0.55779-0.17707-0.83594-0.25977-0.27634-0.08216-0.55168-0.17045-0.82812-0.26758l-2e-3 -2e-3c-0.39193-0.13311-0.71861-0.27867-0.97852-0.4375h4e-3c-0.26138-0.16699-0.46826-0.34518-0.62305-0.53516-0.15453-0.18965-0.26339-0.39483-0.32617-0.61719v-2e-3c-0.0641-0.23564-0.0957-0.48693-0.0957-0.75391 0-0.24438 0.0507-0.48068 0.15625-0.71289h2e-3c0.10516-0.23835 0.25762-0.44878 0.46289-0.63281 0.21173-0.18305 0.46784-0.3278 0.76953-0.43555v-2e-3c0.30653-0.11406 0.65558-0.17188 1.0488-0.17188 0.19498 0 0.42298 0.01774 0.68164 0.05469 0.26494 0.0368 0.53145 0.09229 0.79687 0.16602v2e-3h2e-3c0.2653 0.06633 0.51538 0.14687 0.75 0.24219 0.23307 0.09468 0.42366 0.19621 0.57031 0.30078 0.0752 0.0547 0.16164 0.12844 0.25586 0.22266l4e-3 0.0039 2e-3 0.0039c0.0919 0.07875 0.14737 0.15672 0.17578 0.23633l2e-3 2e-3 0.83399 2.1641h1.2637v-4.5l-0.0937-0.02734c-0.32727-0.09894-0.69234-0.19427-1.0938-0.28516-0.39499-0.09115-0.81474-0.1701-1.2617-0.23828-0.4393-0.06817-0.89431-0.12229-1.3633-0.16016h-2e-3c-0.47019-0.04544-0.9399-0.06836-1.4102-0.06836zm0 0.26758c0.46231 0 0.92435 0.02166 1.3867 0.06641h2e-3c0.46354 0.03738 0.91261 0.08904 1.3457 0.15625 0.44107 0.06728 0.85644 0.14686 1.2441 0.23633 0.36184 0.08192 0.68226 0.16809 0.98047 0.25586v4.0312h-0.81445l-0.76758-1.9902-2e-3 -2e-3c-0.0467-0.12929-0.13301-0.24493-0.25-0.3457-0.099-0.0985-0.19285-0.1818-0.28125-0.24609-0.16927-0.12091-0.37898-0.22934-0.62695-0.33008-0.24575-0.09983-0.50629-0.18497-0.78126-0.25391l-4e-3 -2e-3c-0.27508-0.07622-0.55063-0.1336-0.82617-0.17188-0.26816-0.0383-0.50733-0.05664-0.71875-0.05664-0.41956 0-0.79994 0.06268-1.1406 0.18945-0.32846 0.11763-0.61472 0.27937-0.85351 0.48633h-2e-3v2e-3c-0.23124 0.20732-0.40867 0.44924-0.52929 0.72266-0.11969 0.26396-0.18164 0.53852-0.18164 0.82031 0 0.28926 0.0364 0.56562 0.10742 0.82617 0.0728 0.25866 0.19877 0.49856 0.375 0.71484 0.17634 0.21642 0.40506 0.4126 0.68554 0.5918l2e-3 2e-3c0.28196 0.17231 0.62542 0.32702 1.0312 0.46484v-2e-3c0.28047 0.09855 0.56122 0.19002 0.84179 0.27344 0.27741 0.08247 0.55461 0.16979 0.83204 0.25976h4e-3c0.28422 0.08227 0.5714 0.17223 0.86328 0.26953 0.29038 0.09679 0.59703 0.20908 0.91797 0.33594 0.37569 0.15469 0.74325 0.34938 1.1055 0.58594 0.35804 0.23382 0.67531 0.51476 0.95313 0.84375 0.2757 0.32649 0.4977 0.70938 0.66601 1.1484h2e-3c0.16616 0.42624 0.25 0.91402 0.25 1.4648 0 0.61368-0.128 1.2144-0.38476 1.8086v2e-3c-0.24738 0.58208-0.63585 1.1019-1.1719 1.5645l-2e-3 2e-3c-0.5261 0.46033-1.2013 0.8317-2.0312 1.1133-0.81751 0.27987-1.8012 0.42188-2.9492 0.42188-0.43801 0-0.88637-0.03032-1.3476-0.08984h-2e-3c-0.45551-0.05227-0.91154-0.12325-1.3672-0.21289-0.45619-0.08974-0.9087-0.1948-1.3574-0.31445-0.41876-0.11167-0.81714-0.22763-1.2031-0.3457l-0.1836-4.3027h0.82032l0.83789 2.1309v2e-3c0.0268 0.06249 0.063 0.12214 0.10547 0.18164l2e-3 0.0059 4e-3 0.0039c0.0431 0.05032 0.0873 0.10402 0.13086 0.16211l0.012 0.0156c0.0527 0.05269 0.10131 0.10132 0.14649 0.14648l4e-3 0.0039 4e-3 2e-3c0.0562 0.04822 0.10656 0.0866 0.1543 0.11523 0.24698 0.16179 0.52974 0.31429 0.84961 0.45898l2e-3 2e-3c0.31972 0.13702 0.64325 0.25862 0.9707 0.36523h4e-3c0.3348 0.09892 0.65762 0.17914 0.9707 0.24024 0.31496 0.06145 0.59768 0.09375 0.84961 0.09375 0.45682 0 0.87452-0.06555 1.252-0.19922 0.38268-0.13277 0.7121-0.31812 0.98243-0.55664 0.26875-0.23714 0.47593-0.51629 0.61914-0.83398v-2e-3c0.15112-0.31883 0.22656-0.66611 0.22656-1.0371 0-0.31436-0.0473-0.59832-0.14453-0.84961-0.0888-0.24862-0.22667-0.47438-0.41016-0.67383-0.18293-0.19884-0.40718-0.37309-0.67187-0.52148l-4e-3 -2e-3c-0.25542-0.15449-0.55395-0.29853-0.89648-0.43555h-2e-3v-2e-3c-0.30377-0.11391-0.60815-0.21545-0.91211-0.30664-0.2945-0.09062-0.58828-0.17865-0.88281-0.26172-0.29249-0.0825-0.58443-0.16781-0.87695-0.25781-0.28237-0.08917-0.56508-0.18928-0.84766-0.30078h-2e-3c-0.44867-0.18403-0.85036-0.41279-1.209-0.68359-0.35007-0.27002-0.64497-0.57497-0.88477-0.91602l-2e-3 -2e-3c-0.23985-0.34931-0.42536-0.7291-0.55664-1.1367-0.13116-0.41533-0.19727-0.857-0.19727-1.3262 0-0.44525 0.069-0.86606 0.20703-1.2656 0.13873-0.40158 0.33223-0.77014 0.58008-1.1055h-2e-3c0.25635-0.34424 0.55754-0.65043 0.90234-0.92188v-2e-3h2e-3c0.34444-0.27848 0.72764-0.51382 1.1543-0.70508h2e-3c0.42696-0.19876 0.88364-0.34972 1.3711-0.45312h2e-3c0.48665-0.1106 0.99262-0.16602 1.5176-0.16602z" style="color-rendering:auto;color:#000000;dominant-baseline:auto;font-feature-settings:normal;font-variant-alternates:normal;font-variant-caps:normal;font-variant-east-asian:normal;font-variant-ligatures:normal;font-variant-numeric:normal;font-variant-position:normal;font-variation-settings:normal;image-rendering:auto;inline-size:0;isolation:auto;mix-blend-mode:normal;shape-margin:0;shape-padding:0;shape-rendering:auto;solid-color:#000000;stop-color:#000000;text-decoration-color:#000000;text-decoration-line:none;text-decoration-style:solid;text-indent:0;text-orientation:mixed;text-transform:none;white-space:normal"/>
  </g>
  <g transform="matrix(1.5315 0 0 1.5524 -15.321 -115.06)" style="stroke-width:.26639">
   <path d="m119.71 91.988c-0.49671 0-0.96331-0.05644-1.3998-0.16933-0.42898-0.10536-0.80528-0.25964-1.1289-0.46284-0.31609-0.21073-0.56444-0.45908-0.74506-0.74507-0.18063-0.29351-0.27094-0.62842-0.27094-1.0047v-7.7442h-1.8401v-1.0273c0.30104-0.06021 0.57574-0.12418 0.82409-0.19191 0.24836-0.07526 0.46285-0.17686 0.64347-0.3048s0.32361-0.29727 0.42898-0.508c0.10536-0.21073 0.16933-0.48918 0.19191-0.83538l0.0903-1.5014 2.89-0.44027v3.3641h4.0188l-0.25965 1.445h-3.7592v6.9088c0 0.24083 0.0753 0.45532 0.22578 0.64347 0.15805 0.18062 0.3462 0.3349 0.56445 0.46284 0.21825 0.12042 0.44779 0.21449 0.68862 0.28222 0.24835 0.06773 0.46284 0.1016 0.64347 0.1016 0.12041 0 0.24835-0.0075 0.38382-0.02258 0.13547-0.01505 0.26717-0.03011 0.39511-0.04516 0.13547-0.01505 0.25964-0.03387 0.37253-0.05644 0.12041-0.02258 0.22201-0.04139 0.3048-0.05644h0.34996v0.86924c-0.12794 0.06773-0.31233 0.16181-0.55316 0.28222-0.24083 0.11289-0.51929 0.22578-0.83538 0.33867s-0.66604 0.21073-1.0499 0.29351c-0.3763 0.08278-0.76765 0.12418-1.174 0.12418z" style="color-rendering:auto;color:#000000;dominant-baseline:auto;font-feature-settings:normal;font-variant-alternates:normal;font-variant-caps:normal;font-variant-east-asian:normal;font-variant-ligatures:normal;font-variant-numeric:normal;font-variant-position:normal;font-variation-settings:normal;image-rendering:auto;inline-size:0;isolation:auto;mix-blend-mode:normal;shape-margin:0;shape-padding:0;shape-rendering:auto;solid-color:#000000;stop-color:#000000;text-decoration-color:#000000;text-decoration-line:none;text-decoration-style:solid;text-indent:0;text-orientation:mixed;text-transform:none;white-space:normal"/>
   <path d="m119.53 76.898-3.1504 0.48047-0.0977 1.6074c-0.0218 0.33452-0.0837 0.59712-0.17773 0.78516-0.0966 0.19314-0.22428 0.34392-0.38672 0.45898-0.16717 0.11842-0.36858 0.21337-0.60547 0.28516-0.24387 0.0664-0.51353 0.13005-0.81055 0.18945l-0.10742 0.02148v1.2695h1.8398v7.6113c0 0.39761 0.0971 0.75907 0.29101 1.0742 0.19147 0.30316 0.45568 0.5655 0.78516 0.78516l2e-3 2e-3c0.3366 0.21135 0.7264 0.37028 1.166 0.47852 0.44836 0.11596 0.92679 0.17383 1.4336 0.17383 9e-3 0 0.0179-0.0019 0.0273-2e-3 0.4054-0.0019 0.7984-0.04198 1.1758-0.125 0.38865-0.08383 0.74395-0.18366 1.0664-0.29883 0.31925-0.11401 0.602-0.22664 0.84766-0.3418v-2e-3h2e-3c0.24133-0.12066 0.427-0.21457 0.55664-0.2832l0.0703-0.03906v-1.082h-0.49414l-0.0137 2e-3c-0.0831 0.01511-0.18411 0.03403-0.30469 0.05664h-2e-3c-0.10842 0.02168-0.22909 0.03999-0.36133 0.05469-0.12764 0.01502-0.25933 0.0299-0.39453 0.04492-0.13116 0.01457-0.25428 0.02344-0.36914 0.02344-0.16398 0-0.36698-0.03208-0.60742-0.09766-0.23113-0.065-0.45081-0.15402-0.66016-0.26953h4e-3c-0.20594-0.12072-0.38332-0.26498-0.53125-0.43359-0.13122-0.16549-0.19336-0.34512-0.19336-0.55664v-6.7754h3.7363l0.30859-1.7129h-4.0449zm-0.26758 0.31055v3.3418h3.9941l-0.21289 1.1777h-3.7812v7.043c0 0.26858 0.088 0.51677 0.25586 0.72656l4e-3 4e-3c0.16779 0.19176 0.36791 0.35556 0.59765 0.49024v2e-3h2e-3c0.22714 0.12532 0.46625 0.2225 0.71679 0.29297l2e-3 2e-3c0.25626 0.06989 0.48046 0.10547 0.67773 0.10547 0.12596 0 0.25867-0.0079 0.39844-0.02344 0.13507-0.01501 0.26688-0.02991 0.39453-0.04492 0.13801-0.01534 0.26594-0.03529 0.38281-0.05859 0.11638-0.02182 0.21396-0.03995 0.29492-0.05469h0.20313v0.6543c-0.12296 0.06432-0.27068 0.1412-0.48047 0.24609-0.23522 0.11009-0.5089 0.22082-0.82031 0.33203-0.30972 0.11062-0.65422 0.20732-1.0332 0.28906-0.36648 0.08062-0.74913 0.12109-1.1465 0.12109-0.48662 0-0.94058-0.05619-1.3652-0.16602h-2e-3c-0.41635-0.10226-0.77838-0.24936-1.0879-0.44336l-2e-3 -2e-3c-0.30147-0.20142-0.53382-0.43506-0.70313-0.70312-0.16731-0.27187-0.25-0.57861-0.25-0.93359v-7.8789h-1.8418v-0.78906c0.25925-0.05387 0.50668-0.108 0.72656-0.16797h4e-3c0.25983-0.07873 0.48757-0.18675 0.68164-0.32422 0.19879-0.14082 0.35654-0.32833 0.4707-0.55664 0.11671-0.23342 0.18369-0.52885 0.20703-0.88672l0.084-1.3945z" style="color-rendering:auto;color:#000000;dominant-baseline:auto;font-feature-settings:normal;font-variant-alternates:normal;font-variant-caps:normal;font-variant-east-asian:normal;font-variant-ligatures:normal;font-variant-numeric:normal;font-variant-position:normal;font-variation-settings:normal;image-rendering:auto;inline-size:0;isolation:auto;mix-blend-mode:normal;shape-margin:0;shape-padding:0;shape-rendering:auto;solid-color:#000000;stop-color:#000000;text-decoration-color:#000000;text-decoration-line:none;text-decoration-style:solid;text-indent:0;text-orientation:mixed;text-transform:none;white-space:normal"/>
  </g>
  <g transform="matrix(1.5315 0 0 1.5524 -15.321 -115.06)" style="stroke-width:.26639">
   <path d="m129.94 92.079c-0.91063 0-1.731-0.13547-2.461-0.4064-0.72249-0.27846-1.3396-0.67733-1.8514-1.1966-0.51177-0.51929-0.90688-1.1477-1.1853-1.8852-0.27846-0.74507-0.41769-1.5804-0.41769-2.5061 0-0.85796 0.13547-1.6557 0.4064-2.3932s0.66604-1.3772 1.1853-1.9191 1.1515-0.96708 1.8965-1.2756c0.75259-0.30856 1.6068-0.46284 2.5626-0.46284 1.0235 0 1.9041 0.16557 2.6416 0.49671 0.74507 0.32362 1.3584 0.76012 1.8401 1.3095 0.48919 0.54939 0.85043 1.1891 1.0837 1.9191 0.23331 0.72249 0.34996 1.4826 0.34996 2.2804 0 0.8429-0.13547 1.6331-0.4064 2.3707s-0.66604 1.3772-1.1853 1.9191-1.1552 0.97084-1.9078 1.2869c-0.74507 0.30856-1.5955 0.46284-2.5513 0.46284zm0.14676-1.3321c0.50424 0 0.91064-0.13923 1.2192-0.41769 0.31609-0.28598 0.56444-0.64723 0.74507-1.0837 0.18062-0.4365 0.30103-0.91816 0.36124-1.445 0.0677-0.53434 0.1016-1.0499 0.1016-1.5466 0-0.6096-0.0452-1.2041-0.13547-1.7836-0.0828-0.58702-0.22577-1.1101-0.42897-1.5692-0.19567-0.45908-0.45908-0.82785-0.79023-1.1063-0.33114-0.28598-0.7413-0.42898-1.2305-0.42898-0.49671 0-0.90311 0.13923-1.2192 0.41769-0.30857 0.27846-0.55316 0.63594-0.73378 1.0724-0.18063 0.42898-0.30481 0.90687-0.37254 1.4337-0.0602 0.52682-0.0903 1.0386-0.0903 1.5353 0 0.54939 0.0339 1.1138 0.1016 1.6933 0.0753 0.5795 0.20696 1.1101 0.39511 1.5917 0.19568 0.48166 0.45909 0.87677 0.79023 1.1853 0.33867 0.30104 0.76764 0.45156 1.2869 0.45156z" style="color-rendering:auto;color:#000000;dominant-baseline:auto;font-feature-settings:normal;font-variant-alternates:normal;font-variant-caps:normal;font-variant-east-asian:normal;font-variant-ligatures:normal;font-variant-numeric:normal;font-variant-position:normal;font-variation-settings:normal;image-rendering:auto;inline-size:0;isolation:auto;mix-blend-mode:normal;shape-margin:0;shape-padding:0;shape-rendering:auto;solid-color:#000000;stop-color:#000000;text-decoration-color:#000000;text-decoration-line:none;text-decoration-style:solid;text-indent:0;text-orientation:mixed;text-transform:none;white-space:normal"/>
   <path d="m130.07 79.9c-0.97013 0-1.8424 0.15658-2.6133 0.47266-0.76042 0.31492-1.4088 0.75092-1.9414 1.3066-0.53217 0.55531-0.93806 1.2114-1.2148 1.9648-0.27669 0.75323-0.41406 1.5675-0.41406 2.4395 0 0.93904 0.14099 1.7907 0.42578 2.5527 0.28433 0.7531 0.68943 1.3985 1.2148 1.9316 0.5254 0.53313 1.1599 0.94386 1.8984 1.2285h2e-3c0.74695 0.27722 1.584 0.41602 2.5078 0.41602 0.97013 0 1.8379-0.15834 2.6016-0.47461 0.76757-0.32238 1.4206-0.76067 1.9531-1.3164 0.53216-0.55531 0.9361-1.2133 1.2129-1.9668 0.27659-0.75296 0.41601-1.5588 0.41601-2.416 0-0.81073-0.11971-1.5842-0.35742-2.3203-0.23857-0.7465-0.60965-1.4034-1.1113-1.9668-0.4954-0.5647-1.1246-1.0136-1.8848-1.3438-0.75854-0.34057-1.6574-0.50781-2.6953-0.50781zm0 0.26562c1.0092 0 1.8694 0.16462 2.5859 0.48633h2e-3c0.72942 0.31682 1.3252 0.74185 1.793 1.2754h2e-3c0.47669 0.53536 0.82665 1.1576 1.0547 1.8711 0.2289 0.70885 0.34375 1.4555 0.34375 2.2402 0 0.82863-0.13317 1.6021-0.39844 2.3242-0.26508 0.7216-0.64985 1.3446-1.1562 1.873-0.50601 0.528-1.1257 0.94606-1.8633 1.2559-0.72608 0.3004-1.5573 0.45312-2.498 0.45312-0.89742 0-1.7029-0.13379-2.416-0.39844-0.70526-0.27221-1.3052-0.65925-1.8027-1.1641-0.49812-0.50544-0.88172-1.1179-1.1543-1.8398-0.27212-0.72812-0.41015-1.5467-0.41015-2.459 0-0.84393 0.13327-1.6258 0.39843-2.3477 0.26508-0.7216 0.64985-1.3446 1.1562-1.873 0.50601-0.52801 1.1219-0.94194 1.8516-1.2441 0.73428-0.30106 1.5703-0.45312 2.5117-0.45312zm-0.14649 1.0664c-0.5216 0-0.96654 0.14984-1.3086 0.45117-0.32467 0.29299-0.58054 0.66908-0.76758 1.1211-0.18588 0.44146-0.31375 0.92966-0.38281 1.4668v2e-3c-0.0607 0.53151-0.0899 1.0487-0.0899 1.5508 0 0.55487 0.0333 1.1247 0.10157 1.709v2e-3c0.0765 0.58888 0.21175 1.1301 0.40429 1.623v2e-3c0.20181 0.49674 0.47541 0.90922 0.82227 1.2324l2e-3 2e-3c0.36393 0.3235 0.83193 0.48633 1.377 0.48633 0.52876 0 0.97325-0.15049 1.3086-0.45312 0.33172-0.30014 0.59015-0.67849 0.77734-1.1309 0.18563-0.44861 0.30958-0.94362 0.3711-1.4805v-2e-3c0.0682-0.53873 0.10351-1.0584 0.10351-1.5605 0-0.61618-0.0473-1.2182-0.13867-1.8047l2e-3 2e-3c-0.0841-0.59651-0.23084-1.1298-0.43945-1.6016v-2e-3c-0.20243-0.47435-0.47771-0.86128-0.82617-1.1543-0.3557-0.30719-0.80127-0.46094-1.3164-0.46094zm0 0.26562c0.46323 0 0.83599 0.1317 1.1426 0.39648l2e-3 2e-3c0.31344 0.26357 0.56505 0.61356 0.75391 1.0566v2e-3c0.1974 0.44599 0.33662 0.95635 0.41797 1.5332l2e-3 2e-3c0.0892 0.57248 0.13281 1.1606 0.13281 1.7637 0 0.49066-0.0325 1.0001-0.0996 1.5293v2e-3c-0.059 0.51601-0.17813 0.98632-0.35351 1.4102-0.17406 0.42064-0.41049 0.76332-0.71094 1.0352-0.28177 0.25428-0.64918 0.38281-1.1289 0.38281-0.49258 0-0.88417-0.13853-1.1973-0.41602l-2e-3 -2e-3c-0.31456-0.29367-0.56669-0.66912-0.75586-1.1348h2e-3c-0.18386-0.47054-0.31474-0.99058-0.38878-1.5607l2e-3 2e-3c-0.0672-0.57468-0.10156-1.1338-0.10156-1.6777 0-0.4907 0.0303-0.99616 0.0898-1.5176v-2e-3c0.0665-0.51569 0.18814-0.98054 0.36328-1.3965v-2e-3c0.1742-0.42099 0.40676-0.75951 0.69922-1.0234 0.29012-0.25558 0.65904-0.38476 1.1309-0.38476z" style="color-rendering:auto;color:#000000;dominant-baseline:auto;font-feature-settings:normal;font-variant-alternates:normal;font-variant-caps:normal;font-variant-east-asian:normal;font-variant-ligatures:normal;font-variant-numeric:normal;font-variant-position:normal;font-variation-settings:normal;image-rendering:auto;inline-size:0;isolation:auto;mix-blend-mode:normal;shape-margin:0;shape-padding:0;shape-rendering:auto;solid-color:#000000;stop-color:#000000;text-decoration-color:#000000;text-decoration-line:none;text-decoration-style:solid;text-indent:0;text-orientation:mixed;text-transform:none;white-space:normal"/>
  </g>
  <g transform="matrix(1.5315 0 0 1.5524 -15.321 -115.06)" style="stroke-width:.26639">
   <path d="m137.29 90.995 1.2305-0.42898c0.13547-0.05268 0.24836-0.12794 0.33867-0.22578 0.0978-0.09784 0.14675-0.22578 0.14675-0.38382v-6.9765c0-0.12042-0.0113-0.22578-0.0339-0.31609-0.0151-0.09784-0.0489-0.18062-0.1016-0.24836-0.0451-0.07526-0.10534-0.13923-0.18063-0.19191-0.0753-0.05268-0.1731-0.09784-0.29351-0.13547l-1.1966-0.45156v-0.69991l4.8994-0.80151v2.5061h0.0339c0.23331-0.36877 0.47037-0.7112 0.7112-1.0273 0.24083-0.32362 0.50048-0.59831 0.77894-0.82409 0.27846-0.2333 0.5795-0.41392 0.90311-0.54187 0.32361-0.13547 0.67733-0.2032 1.0612-0.2032 0.2032 0 0.38759 0.01129 0.55316 0.03387 0.17309 0.01505 0.3349 0.04139 0.48542 0.07902s0.29351 0.08278 0.42898 0.13547c0.13547 0.05268 0.2747 0.11289 0.41769 0.18062v3.5108h-1.4676l-0.42897-0.83538c-0.0301-0.06773-0.0866-0.1317-0.16934-0.19191-0.0753-0.06773-0.16557-0.12794-0.27093-0.18062-0.0978-0.05268-0.21073-0.09407-0.33867-0.12418-0.12041-0.03011-0.23706-0.04516-0.34995-0.04516-0.2032 0-0.40264 0.01505-0.59831 0.04516-0.18815 0.02258-0.37254 0.07526-0.55316 0.15804-0.18062 0.07526-0.35748 0.18062-0.53058 0.31609-0.17309 0.12794-0.34995 0.3048-0.53058 0.53058v6.2992c0 0.16557 0.0452 0.29727 0.13547 0.39511 0.0903 0.09784 0.20697 0.16933 0.34996 0.21449l1.524 0.42898v0.77893h-6.954z" style="color-rendering:auto;color:#000000;dominant-baseline:auto;font-feature-settings:normal;font-variant-alternates:normal;font-variant-caps:normal;font-variant-east-asian:normal;font-variant-ligatures:normal;font-variant-numeric:normal;font-variant-position:normal;font-variation-settings:normal;image-rendering:auto;inline-size:0;isolation:auto;mix-blend-mode:normal;shape-margin:0;shape-padding:0;shape-rendering:auto;solid-color:#000000;stop-color:#000000;text-decoration-color:#000000;text-decoration-line:none;text-decoration-style:solid;text-indent:0;text-orientation:mixed;text-transform:none;white-space:normal"/>
   <path d="m145.58 79.912c-0.39949 0-0.77041 0.07018-1.1113 0.21289-0.3358 0.13295-0.64783 0.31985-0.93555 0.56055-0.28805 0.23355-0.55608 0.51817-0.80273 0.84961-0.17154 0.2252-0.33843 0.4793-0.50586 0.73047v-2.2871l-5.1641 0.8457v0.9043l1.2852 0.48633h4e-3c0.11106 0.03471 0.19768 0.0751 0.25781 0.11719 0.0611 0.04277 0.10719 0.09334 0.14258 0.15234l4e-3 0.0059 4e-3 0.0078c0.0374 0.04806 0.064 0.10621 0.0762 0.18555v0.0059l2e-3 0.0059c0.0192 0.07679 0.0293 0.17308 0.0293 0.28516v6.9766c0 0.13056-0.0349 0.21658-0.10742 0.28906l-4e-3 4e-3c-0.0759 0.0822-0.17023 0.1452-0.28906 0.19141l-1.3144 0.45898v1.0059h7.2207v-1.0117l-1.6172-0.45508-4e-3 -2e-3c-0.12201-0.03926-0.21652-0.09719-0.28907-0.17578-0.0649-0.07032-0.0996-0.16334-0.0996-0.30469v-6.2461c0.16455-0.20096 0.32509-0.3646 0.47657-0.47656l2e-3 -2e-3c0.16482-0.12899 0.33163-0.22867 0.5-0.29883h2e-3l2e-3 -2e-3c0.16886-0.0774 0.33963-0.1256 0.51367-0.14648h4e-3c0.18883-0.02905 0.38151-0.04492 0.57813-0.04492 0.10105 0 0.20745 0.01328 0.31836 0.04102h2e-3c0.11845 0.02787 0.22082 0.06707 0.30664 0.11328h2e-3l2e-3 2e-3c0.0963 0.04814 0.17518 0.10161 0.24023 0.16016l0.012 0.0078c0.0698 0.05075 0.10732 0.09892 0.125 0.13867l2e-3 0.0039 0.4668 0.91016h1.6836v-3.7285l-0.0762-0.03516c-0.14562-0.06898-0.28905-0.12966-0.42773-0.18359-0.14102-0.05484-0.28777-0.10173-0.44336-0.14062-0.15565-0.03891-0.3238-0.06632-0.5-0.08203-0.1728-0.02357-0.36413-0.03516-0.57227-0.03516zm0 0.26562c0.19827 0 0.37682 0.01161 0.53516 0.0332h8e-3c0.16687 0.01451 0.31997 0.04044 0.46289 0.07617 0.14545 0.03636 0.28415 0.08033 0.41407 0.13086 0.10752 0.04181 0.21913 0.09081 0.33203 0.14258v3.291h-1.252l-0.38867-0.75586c-0.042-0.09447-0.11698-0.17316-0.21093-0.24219-9.2e-4 -8.07e-4 -1e-3 -0.0031-2e-3 -0.0039-0.0829-0.07299-0.1777-0.13451-0.28711-0.18945l-2e-3 -2e-3c-0.10883-0.05832-0.23139-0.10266-0.36719-0.13476h-2e-3c-0.12924-0.03216-0.25676-0.04883-0.38086-0.04883-0.20978 0-0.41467 0.01572-0.61719 0.04687-0.2008 0.02455-0.3988 0.08041-0.58984 0.16797-0.19098 0.0802-0.37694 0.1914-0.55664 0.33203-0.18441 0.13682-0.36779 0.32156-0.55274 0.55274l-0.0293 0.03711v6.3457c0 0.18979 0.0562 0.35902 0.17187 0.48438 0.10715 0.11608 0.24655 0.2009 0.4082 0.25195h2e-3l1.4277 0.40234v0.54492h-6.6875v-0.55078l1.1445-0.39844 2e-3 -2e-3c0.15034-0.05847 0.28062-0.14431 0.38476-0.25586v-2e-3c0.12232-0.12308 0.18555-0.28974 0.18555-0.47461v-6.9766c0-0.12662-0.014-0.24124-0.0391-0.34375-0.0183-0.11068-0.059-0.21268-0.12305-0.29688-0.0543-0.08747-0.12458-0.16418-0.21094-0.22461-0.0889-0.06221-0.19729-0.11217-0.32422-0.15234l-6e-3 -2e-3 -1.1035-0.41602v-0.49414l4.6328-0.75976v2.4844h0.24023l0.0391-0.0625c0.23143-0.3658 0.46682-0.70486 0.70508-1.0176v-2e-3c0.23501-0.31579 0.48699-0.58278 0.75585-0.80078h2e-3c0.26818-0.22469 0.55717-0.39892 0.86719-0.52148h2e-3c0.30631-0.12822 0.64161-0.19336 1.0098-0.19336z" style="color-rendering:auto;color:#000000;dominant-baseline:auto;font-feature-settings:normal;font-variant-alternates:normal;font-variant-caps:normal;font-variant-east-asian:normal;font-variant-ligatures:normal;font-variant-numeric:normal;font-variant-position:normal;font-variation-settings:normal;image-rendering:auto;inline-size:0;isolation:auto;mix-blend-mode:normal;shape-margin:0;shape-padding:0;shape-rendering:auto;solid-color:#000000;stop-color:#000000;text-decoration-color:#000000;text-decoration-line:none;text-decoration-style:solid;text-indent:0;text-orientation:mixed;text-transform:none;white-space:normal"/>
  </g>
  <g transform="matrix(1.5315 0 0 1.5524 -15.321 -115.06)" style="stroke-width:.26639">
   <path d="m153.99 92.034c-0.85043 0-1.6331-0.12794-2.3481-0.38382-0.71496-0.25588-1.3321-0.63218-1.8514-1.1289-0.51176-0.50424-0.91063-1.1214-1.1966-1.8514-0.28599-0.73754-0.42898-1.588-0.42898-2.5513 0-0.82033 0.13547-1.5993 0.4064-2.3368 0.27846-0.73754 0.66981-1.381 1.174-1.9304 0.51176-0.55692 1.1326-0.99718 1.8627-1.3208 0.73001-0.33114 1.5541-0.49671 2.4723-0.49671 0.79775 0 1.5052 0.12794 2.1223 0.38382 0.62465 0.25588 1.1477 0.59078 1.5692 1.0047 0.42898 0.41393 0.75259 0.89182 0.97084 1.4337 0.22578 0.54187 0.33867 1.0988 0.33867 1.6708 0 0.06773-4e-3 0.16933-0.0113 0.3048 0 0.12794-8e-3 0.25964-0.0226 0.39511-8e-3 0.13547-0.0151 0.26717-0.0226 0.39511-8e-3 0.12042-0.0151 0.20696-0.0226 0.25964h-7.4958c8e-3 1.3697 0.31986 2.4121 0.93697 3.127 0.61713 0.70744 1.5654 1.0612 2.8448 1.0612 0.4064 0 0.77893-0.03387 1.1176-0.1016 0.33867-0.07526 0.64723-0.16181 0.92569-0.25964 0.28599-0.09784 0.53811-0.20696 0.75636-0.32738 0.22577-0.12042 0.42521-0.22954 0.59831-0.32738h0.37253v1.0612c-0.27846 0.22578-0.60207 0.45156-0.97084 0.67733-0.36877 0.21825-0.76765 0.42145-1.1966 0.6096-0.42898 0.18815-0.88806 0.33867-1.3772 0.45156-0.48919 0.12042-0.99719 0.18062-1.524 0.18062zm1.7836-7.3604c0-0.48918-0.0301-0.93698-0.0903-1.3434s-0.16556-0.75636-0.31608-1.0499c-0.14299-0.29351-0.33867-0.52305-0.58703-0.68862-0.24835-0.16557-0.55692-0.24836-0.92569-0.24836-0.34619 0-0.65851 0.07526-0.93697 0.22578-0.27093 0.15052-0.50424 0.36877-0.69991 0.65476-0.19568 0.28598-0.34996 0.63594-0.46285 1.0499s-0.18062 0.88053-0.2032 1.3998z" style="color-rendering:auto;color:#000000;dominant-baseline:auto;font-feature-settings:normal;font-variant-alternates:normal;font-variant-caps:normal;font-variant-east-asian:normal;font-variant-ligatures:normal;font-variant-numeric:normal;font-variant-position:normal;font-variation-settings:normal;image-rendering:auto;inline-size:0;isolation:auto;mix-blend-mode:normal;shape-margin:0;shape-padding:0;shape-rendering:auto;solid-color:#000000;stop-color:#000000;text-decoration-color:#000000;text-decoration-line:none;text-decoration-style:solid;text-indent:0;text-orientation:mixed;text-transform:none;white-space:normal"/>
   <path d="m154.09 79.9c-0.93418 0-1.7782 0.16799-2.5274 0.50781-0.74535 0.33041-1.3818 0.78283-1.9062 1.3535-0.51605 0.56227-0.91718 1.2205-1.2012 1.9727v2e-3c-0.27644 0.75254-0.41406 1.5478-0.41406 2.3828 0 0.9765 0.14445 1.8419 0.4375 2.5977v2e-3c0.29203 0.74544 0.70075 1.3784 1.2266 1.8965l2e-3 2e-3c0.53311 0.50992 1.1674 0.89656 1.8984 1.1582 0.73074 0.26153 1.5288 0.39062 2.3926 0.39062 0.5363 0 1.0553-0.06083 1.5547-0.18359 0.49667-0.11462 0.96333-0.26729 1.4004-0.45898 0.43346-0.19012 0.83712-0.39595 1.2109-0.61719h2e-3c0.3729-0.22831 0.70044-0.45729 0.98437-0.6875l0.0508-0.04102v-1.2578h-0.54102l-0.0312 0.01758c-0.17188 0.09715-0.37067 0.20616-0.5957 0.32617h-2e-3c-0.21006 0.1159-0.4544 0.22258-0.73437 0.31836-0.27261 0.09578-0.57783 0.18158-0.91211 0.25586-0.3277 0.06526-0.69031 0.09766-1.0879 0.09766-1.2549 0-2.157-0.34255-2.7441-1.0156-0.56699-0.65764-0.85795-1.6326-0.88672-2.9062h7.4609l0.0156-0.11328c9e-3 -0.0606 0.0158-0.14952 0.0234-0.27148 8e-3 -0.12809 0.0159-0.25893 0.0234-0.39453l-2e-3 0.0059c0.0154-0.13804 0.0232-0.27098 0.0234-0.40234v-0.0059c7e-3 -0.13287 0.0117-0.23338 0.0117-0.30469 0-0.58885-0.11598-1.164-0.34766-1.7207v-2e-3c-0.22515-0.5584-0.56059-1.0526-1.002-1.4785-0.43513-0.42736-0.97308-0.7698-1.6113-1.0312-0.63588-0.26366-1.3599-0.39453-2.1719-0.39453zm0 0.26562c0.7835 0 1.4719 0.1269 2.0703 0.375 0.61106 0.25031 1.1196 0.57607 1.5273 0.97656 0.41621 0.4016 0.72812 0.86396 0.93946 1.3887h2e-3c0.21938 0.52651 0.32813 1.0666 0.32812 1.6211 0 0.06279-4e-3 0.16264-0.0117 0.29688v0.0078c0 0.12271-7e-3 0.24802-0.0215 0.37891v0.0078c-8e-3 0.13533-0.0159 0.26674-0.0234 0.39453-4e-3 0.06408-8e-3 0.09124-0.0117 0.13477h-7.5078v0.13476c8e-3 1.3896 0.32628 2.4663 0.97071 3.2129 0.6471 0.7418 1.6414 1.1074 2.9453 1.1074 0.4138 0 0.79582-0.03573 1.1445-0.10547h2e-3c0.34239-0.07609 0.65558-0.16402 0.93946-0.26367 0.29138-0.09968 0.54929-0.21133 0.77539-0.33594 0.2141-0.11419 0.4009-0.21627 0.56836-0.31055h0.20703v0.85742c-0.26357 0.21024-0.56011 0.42088-0.90625 0.63281-0.36333 0.21495-0.75772 0.41563-1.1816 0.60156-0.4209 0.1846-0.87182 0.3322-1.3535 0.44336l-2e-3 2e-3c-0.47841 0.11776-0.97552 0.17578-1.4922 0.17578-0.83707 0-1.6035-0.12672-2.3027-0.37695-0.69796-0.2498-1.2977-0.61507-1.8027-1.0977l-2e-3 -2e-3c-0.49681-0.49005-0.88447-1.089-1.1641-1.8027-0.27892-0.71932-0.41993-1.5518-0.41993-2.502 0-0.80566 0.13302-1.5685 0.39844-2.291 0.27294-0.72291 0.65406-1.3502 1.1465-1.8867 0.4991-0.54315 1.1037-0.97225 1.8184-1.2891h2e-3c0.71088-0.32246 1.5158-0.48633 2.418-0.48633zm-0.22656 1.043c-0.3655 0-0.70123 0.08069-1 0.24219h-2e-3v2e-3c-0.29034 0.1613-0.53844 0.39467-0.74414 0.69531-0.20585 0.30085-0.36644 0.66458-0.48242 1.0898-0.11601 0.42539-0.1841 0.90231-0.20703 1.4297l-6e-3 0.13867h4.4941v-0.13281c0-0.49465-0.0305-0.94922-0.0918-1.3633-0.0616-0.41614-0.17048-0.77934-0.32812-1.0879l-2e-3 -2e-3c-0.15188-0.31071-0.36285-0.56156-0.63085-0.74023-0.27368-0.18245-0.6113-0.27148-1-0.27148zm0 0.26758c0.34883 0 0.62852 0.07787 0.85156 0.22656 0.22795 0.15196 0.407 0.35968 0.54101 0.63477v2e-3h2e-3c0.14242 0.27772 0.24421 0.61468 0.30273 1.0098 0.0531 0.35873 0.0728 0.76387 0.0781 1.1914h-3.9258c0.0281-0.44966 0.081-0.87064 0.17969-1.2324 0.1098-0.40259 0.25785-0.73864 0.44336-1.0098 0.18565-0.27133 0.40277-0.47354 0.6543-0.61328 0.25815-0.13954 0.54616-0.20898 0.87305-0.20898z" style="color-rendering:auto;color:#000000;dominant-baseline:auto;font-feature-settings:normal;font-variant-alternates:normal;font-variant-caps:normal;font-variant-east-asian:normal;font-variant-ligatures:normal;font-variant-numeric:normal;font-variant-position:normal;font-variation-settings:normal;image-rendering:auto;inline-size:0;isolation:auto;mix-blend-mode:normal;shape-margin:0;shape-padding:0;shape-rendering:auto;solid-color:#000000;stop-color:#000000;text-decoration-color:#000000;text-decoration-line:none;text-decoration-style:solid;text-indent:0;text-orientation:mixed;text-transform:none;white-space:normal"/>
  </g>
 </g>
</svg>
